<svg id="MAIN" xmlns="http://www.w3.org/2000/svg" viewBox="0 0 1366 700"><g id="CONTENT"><path d="M334,191.41a24,24,0,1,1-.59-5.34A24,24,0,0,1,334,191.41Z" style="fill:none;stroke:#fff;stroke-miterlimit:10;stroke-width:8px"/><polyline points="334.04 191.21 337.74 78.7 371 104.56" style="fill:none;stroke:#fff;stroke-miterlimit:10;stroke-width:8px"/><path d="M1147.18,469.84a16.57,16.57,0,1,1-.41-3.68A16.59,16.59,0,0,1,1147.18,469.84Z" style="fill:none;stroke:#fff;stroke-miterlimit:10;stroke-width:8px"/><polyline points="1147.18 469.7 1149.73 392 1172.7 409.87" style="fill:none;stroke:#fff;stroke-miterlimit:10;stroke-width:8px"/></g><g id="BODY_BOX"><rect id="body-box" x="472" y="99.02" width="434" height="434.98" style="fill:none;opacity:0"/></g><g id="BODY_NAV"><g id="releases-button"><text transform="translate(461.22 67.62)" style="font-size:70.67797088623047px;fill:#fff;font-family:StolzlDisplay-Bold, Stolzl Display;font-weight:700;letter-spacing:0.029996859854858154em">RELEASES</text><rect x="454" y="-12.08" width="412" height="104.67" style="fill:#fff;opacity:0"/></g></g><g id="HEADERS"><circle cx="1193" cy="119" r="53" style="fill:#fff"/><circle cx="148" cy="212" r="29" style="fill:#fff"/><circle cx="387" cy="402" r="17" style="fill:#fff"/><circle cx="210" cy="510" r="73" style="fill:#fff"/></g></svg>