<svg xmlns="http://www.w3.org/2000/svg" xmlns:xlink="http://www.w3.org/1999/xlink" viewBox="0 0 1125 1096"><defs><clipPath id="clip-path"><circle cx="562.5" cy="513" r="247" style="fill:#45c2ff;stroke:#fff;stroke-miterlimit:10;stroke-width:16px"/></clipPath></defs><g id="MAIN"><g id="BODY_NAV"><g id="releases-button"><text transform="translate(116.48 1050.58)" style="font-size:63.472938537597656px;fill:#fff;font-family:StolzlDisplay-Bold, Stolzl Display;font-weight:700;letter-spacing:0.02999402009129127em">RELEASES</text><rect x="110" y="979" width="370" height="94" style="fill:#fff;opacity:0"/></g><g id="playlist-button"><text transform="translate(672.04 1045.58)" style="font-size:63.472938537597656px;fill:#fff;font-family:StolzlDisplay-Bold, Stolzl Display;font-weight:700;letter-spacing:0.02999402009129127em">PLAYLIST</text><rect x="657" y="974" width="339" height="109" style="fill:#fff;opacity:0"/></g><line x1="114" y1="1062" x2="448" y2="1062" style="fill:none;stroke:#fff;stroke-miterlimit:10;stroke-width:6px"/><line x1="661" y1="1062" x2="995" y2="1062" style="fill:none;stroke:#fff;stroke-miterlimit:10;stroke-width:6px"/></g><g id="LINKS"><g id="instagram"><path d="M686.94,849.18c11,0,12.32,0,16.67.24,11.19.51,16.41,5.81,16.92,16.91.2,4.35.23,5.66.23,16.67s0,12.33-.23,16.67c-.52,11.09-5.72,16.41-16.92,16.92-4.35.2-5.65.24-16.67.24s-12.32,0-16.67-.24c-11.21-.52-16.4-5.84-16.91-16.92-.2-4.35-.24-5.65-.24-16.67s0-12.32.24-16.67c.51-11.1,5.72-16.4,16.91-16.91C674.62,849.22,675.92,849.18,686.94,849.18Zm0-7.44c-11.21,0-12.61,0-17,.25-15,.69-23.31,9-24,24-.2,4.4-.25,5.81-.25,17s.05,12.61.25,17c.69,15,9,23.31,24,24,4.4.2,5.8.25,17,.25s12.61,0,17-.25c15-.69,23.32-9,24-24,.2-4.4.25-5.81.25-17s-.05-12.61-.25-17c-.67-15-9-23.31-24-24C699.55,841.79,698.14,841.74,686.94,841.74Zm0,20.07A21.19,21.19,0,1,0,708.13,883,21.19,21.19,0,0,0,686.94,861.81Zm0,34.94A13.75,13.75,0,1,1,700.69,883,13.74,13.74,0,0,1,686.94,896.75ZM709,856a5,5,0,1,0,4.95,5A5,5,0,0,0,709,856Z" style="fill:#fdfcf8"/><rect x="627" y="833" width="123" height="102" style="fill:#fff;opacity:0"/></g><g id="bandcamp"><path d="M849.34,849.23v66.25h10v-6.59h.18c3.16,6.31,10.12,7.88,16.61,7.88,14.2,0,20.7-12.15,20.7-25,0-14-7.34-25.52-22.46-25.52-5.38,0-11.42,2.88-14.29,7.52h-.18V849.23Zm75.48,17c-15.78,0-23.67,11.33-23.67,25.8,0,14.11,8.26,24.77,23.3,24.77,12.33,0,20-6.87,22-19.3H935.86c-1,6.87-5.29,11-11.41,11-9.19,0-12.72-8.45-12.72-16.43,0-14.56,7.7-17.44,13.18-17.44,5.84,0,10.11,3.16,11,9h10.58C945.42,871.78,936,866.2,924.82,866.2ZM873,874.56c8.72,0,13.27,8.25,13.27,17,0,8.35-3.62,16.89-13.27,16.89-8.53,0-13.45-7.24-13.45-16.89C859.55,881.33,864.1,874.56,873,874.56Z" style="fill:#fdfcf8"/><rect x="832.22" y="837.95" width="123" height="102" style="fill:#fff;opacity:0"/></g><g id="spotify"><path d="M505.59,877.73c-15-8.88-39.62-9.69-53.9-5.36a4.34,4.34,0,1,1-2.51-8.3c16.38-5,43.62-4,60.84,6.2a4.34,4.34,0,0,1-4.43,7.46Zm-.49,13.16a3.61,3.61,0,0,1-5,1.19c-12.47-7.66-31.48-9.88-46.23-5.41a3.62,3.62,0,1,1-2.1-6.92c16.85-5.11,37.79-2.63,52.11,6.17A3.61,3.61,0,0,1,505.1,890.89Zm-5.68,12.63a2.87,2.87,0,0,1-4,1c-10.9-6.65-24.61-8.16-40.76-4.47a2.89,2.89,0,1,1-1.28-5.64c17.67-4,32.83-2.3,45,5.18A2.87,2.87,0,0,1,499.42,903.52Zm-21.27-66.91A46.39,46.39,0,1,0,524.54,883,46.39,46.39,0,0,0,478.15,836.61Z" style="fill:#fdfcf8;fill-rule:evenodd"/><rect x="406" y="812" width="146" height="130" style="fill:#fff;opacity:0"/></g><g id="soundcloud"><path d="M217.08,913.26h-5.5V868.87a22.64,22.64,0,0,1,5.5-3.12Zm16.5,0h5.51V862.51a30.79,30.79,0,0,0-3.42,4.71l-2.09-1Zm-11,0h5.5V864.58a15.44,15.44,0,0,0-5.5-.06Zm-22,0h5.5V874.63a25.91,25.91,0,0,0-3.8,8.45l-1.7-1Zm-16.5-28.89a16.89,16.89,0,0,0,0,25Zm103.87-3.69c-1.12-15.61-13.23-27.94-28.15-27.94a26.66,26.66,0,0,0-15.2,4.82v55.7h50c8.84,0,16-7.67,16-17.09C310.61,883.88,298.68,875.42,287.94,880.68Zm-92.87-.15a12.12,12.12,0,0,0-5.5.67v31.3a14.31,14.31,0,0,0,5.5.76Z" style="fill:#fdfcf8"/><rect x="158" y="824" width="178" height="116" style="fill:#fff;opacity:0"/></g></g><g id="HEADER"><g id="PROFILE"><circle cx="562.5" cy="513" r="247" style="fill:#45c2ff"/><g style="clip-path:url(#clip-path)"><image width="1200" height="800" transform="translate(118.04 219.18) scale(0.78)" xlink:href="../../../Desktop/eluize.jpg"/></g><circle cx="562.5" cy="513" r="247" style="fill:none;stroke:#fff;stroke-miterlimit:10;stroke-width:16px"/></g><text id="NAME" transform="translate(117 208.47)" style="font-size:109.70524597167969px;fill:#fff;font-family:StolzlDisplay-Bold, Stolzl Display;font-weight:700;letter-spacing:0.02999870786351979em">1<tspan x="0" y="131.65">2</tspan><tspan x="0" y="263.29">3</tspan><tspan x="0" y="394.94">4</tspan><tspan x="0" y="526.59">5</tspan></text></g><g id="dropdown-button"><polyline points="973.73 95.08 1017.16 138.51 1061.25 94.42" style="fill:none;stroke:#fff;stroke-miterlimit:10;stroke-width:8px"/><rect x="953" y="81.59" width="127" height="70.41" style="fill:#fff;opacity:0"/></g><g id="DROP_NAV"><rect x="-2" y="5" width="1130" height="224" style="fill:#282828"/><g id="dropup-button"><polyline points="973.73 138.51 1017.16 95.08 1061.25 139.17" style="fill:none;stroke:#fff;stroke-miterlimit:10;stroke-width:8px"/><rect x="953" y="81.59" width="127" height="70.41" style="fill:#fff;opacity:0"/></g><g id="log-button"><text transform="translate(84.62 151.22)" style="font-size:101.43638610839844px;fill:#fff;font-family:StolzlDisplay-Bold, Stolzl Display;font-weight:700;letter-spacing:0.029998789061236646em">LOGOUT</text><rect x="77" y="48" width="475" height="137" style="fill:#fff;opacity:0"/></g></g></g></svg>