<svg id="MAIN" xmlns="http://www.w3.org/2000/svg" xmlns:xlink="http://www.w3.org/1999/xlink" viewBox="0 0 1366 369"><defs><clipPath id="clip-path"><circle cx="258.07" cy="193.07" r="107.93" style="fill:#e700d0"/></clipPath></defs><g id="BODY_NAV"><g id="releases-button"><text transform="translate(469.51 316.45)" style="font-size:34.356910705566406px;fill:#fff;font-family:StolzlDisplay-Bold, Stolzl Display;font-weight:700;letter-spacing:0.030001583308332753em">RELEASES</text><rect x="466" y="277.71" width="200.28" height="50.88" style="fill:#fff;opacity:0"/></g><g id="releases-button-2" data-name="releases-button"><rect x="454" y="357.92" width="412" height="104.67" style="fill:#fff;opacity:0"/></g><g id="playlist-button"><text transform="translate(770.22 313.74)" style="font-size:34.356910705566406px;fill:#fff;font-family:StolzlDisplay-Bold, Stolzl Display;font-weight:700;letter-spacing:0.02998737128402753em">PLAYLIST</text><rect x="762.08" y="275" width="183.5" height="59" style="fill:#fff;opacity:0"/></g></g><g id="HEADERS"><circle cx="169.5" cy="148.5" r="51.5" style="fill:#fff"/><g id="PROFILE"><circle cx="258.07" cy="193.07" r="107.93" style="fill:#e700d0"/><g style="clip-path:url(#clip-path)"><image width="1200" height="800" transform="translate(63.84 64.67) scale(0.34)" xlink:href="../../../Desktop/eluize.jpg"/></g></g><text id="NAME" transform="translate(467.57 231.43)" style="font-size:88.06172180175781px;fill:#fff;font-family:StolzlDisplay-Bold, Stolzl Display;font-weight:700">Eluize</text><circle cx="82" cy="247" r="29" style="fill:#fff"/><circle cx="75.5" cy="91.5" r="22.5" style="fill:#fff"/></g><g id="LINKS"><g id="instagram"><path d="M802.64,70.75c7,0,7.83,0,10.59.15,7.11.33,10.43,3.7,10.75,10.75.13,2.76.15,3.59.15,10.59s0,7.83-.15,10.59c-.33,7-3.64,10.43-10.75,10.75-2.76.13-3.59.15-10.59.15s-7.83,0-10.59-.15c-7.13-.33-10.43-3.71-10.75-10.75-.13-2.76-.15-3.59-.15-10.59s0-7.83.15-10.59c.33-7.05,3.64-10.43,10.75-10.75C794.81,70.78,795.64,70.75,802.64,70.75Zm0-4.72c-7.12,0-8,0-10.81.15-9.52.44-14.81,5.72-15.25,15.25-.12,2.8-.15,3.69-.15,10.81s0,8,.15,10.81c.44,9.52,5.72,14.81,15.25,15.25,2.8.12,3.69.15,10.81.15s8,0,10.81-.15c9.51-.44,14.81-5.72,15.24-15.25.13-2.8.16-3.69.16-10.81s0-8-.15-10.81c-.43-9.51-5.72-14.81-15.25-15.24C810.65,66.06,809.76,66,802.64,66Zm0,12.75A13.46,13.46,0,1,0,816.1,92.24,13.46,13.46,0,0,0,802.64,78.78Zm0,22.2a8.74,8.74,0,1,1,8.74-8.74A8.74,8.74,0,0,1,802.64,101Zm14-25.88a3.15,3.15,0,1,0,3.15,3.15A3.14,3.14,0,0,0,816.63,75.1Z" style="fill:#fdfcf8"/><rect x="764.55" y="60.47" width="78.15" height="64.81" style="fill:#fff;opacity:0"/></g><g id="bandcamp"><path d="M905.83,70.78v42.1h6.36v-4.19h.12c2,4,6.43,5,10.55,5,9,0,13.15-7.73,13.15-15.92,0-8.9-4.66-16.21-14.27-16.21a11.1,11.1,0,0,0-9.08,4.78h-.11V70.78Zm47.95,10.79c-10,0-15,7.2-15,16.39,0,9,5.24,15.74,14.8,15.74,7.84,0,12.73-4.37,14-12.27H960.8c-.65,4.37-3.36,7-7.25,7-5.84,0-8.08-5.37-8.08-10.44,0-9.25,4.89-11.08,8.37-11.08,3.71,0,6.43,2,7,5.72h6.72C966.87,85.11,960.86,81.57,953.78,81.57Zm-32.92,5.31c5.54,0,8.43,5.24,8.43,10.78,0,5.31-2.3,10.73-8.43,10.73-5.42,0-8.55-4.6-8.55-10.73C912.31,91.18,915.2,86.88,920.86,86.88Z" style="fill:#fdfcf8"/><rect x="894.95" y="63.61" width="78.15" height="64.81" style="fill:#fff;opacity:0"/></g><g id="spotify"><path d="M687.41,88.89c-9.5-5.64-25.17-6.16-34.24-3.4a2.76,2.76,0,0,1-1.6-5.28c10.41-3.16,27.72-2.55,38.66,3.94a2.76,2.76,0,1,1-2.82,4.74Zm-.31,8.36a2.3,2.3,0,0,1-3.16.76c-7.92-4.87-20-6.28-29.37-3.44a2.29,2.29,0,1,1-1.34-4.39c10.71-3.25,24-1.68,33.12,3.91A2.29,2.29,0,0,1,687.1,97.25Zm-3.61,8a1.83,1.83,0,0,1-2.52.61c-6.92-4.23-15.64-5.19-25.9-2.84a1.84,1.84,0,1,1-.81-3.58c11.22-2.57,20.85-1.47,28.62,3.28A1.84,1.84,0,0,1,683.49,105.28ZM670,62.76a29.48,29.48,0,1,0,29.47,29.48A29.48,29.48,0,0,0,670,62.76Z" style="fill:#fdfcf8;fill-rule:evenodd"/><rect x="624.13" y="47.13" width="92.77" height="82.6" style="fill:#fff;opacity:0"/></g><g id="soundcloud"><path d="M504.1,111.47h-3.5V83.26a14.41,14.41,0,0,1,3.5-2Zm10.48,0h3.5V79.22a19.11,19.11,0,0,0-2.17,3l-1.33-.65Zm-7,0h3.5V80.53a10,10,0,0,0-3.5,0Zm-14,0h3.5V86.92a16.35,16.35,0,0,0-2.42,5.37l-1.08-.64ZM483.12,93.11a10.75,10.75,0,0,0,0,15.86Zm66-2.34c-.71-9.92-8.4-17.76-17.89-17.76a16.93,16.93,0,0,0-9.65,3.07v35.39h31.77c5.62,0,10.18-4.87,10.18-10.86C563.53,92.8,556,87.42,549.12,90.77Zm-59-.1a7.69,7.69,0,0,0-3.49.43V111a9.11,9.11,0,0,0,3.49.48Z" style="fill:#fdfcf8"/><rect x="466.56" y="54.75" width="113.1" height="73.7" style="fill:#fff;opacity:0"/></g></g><g id="dropdown-button"><polyline points="1056.11 89.05 1099.54 132.48 1143.63 88.39" style="fill:none;stroke:#fff;stroke-miterlimit:10;stroke-width:8px"/><rect x="1035.38" y="75.56" width="127" height="70.41" style="fill:#fff;opacity:0"/></g><g id="DROP_NAV"><rect x="80.38" y="-1.03" width="1130" height="224" style="fill:#282828"/><g id="dropup-button"><polyline points="1056.11 132.48 1099.54 89.05 1143.63 133.14" style="fill:none;stroke:#fff;stroke-miterlimit:10;stroke-width:8px"/><rect x="1035.38" y="75.56" width="127" height="70.41" style="fill:#fff;opacity:0"/></g><g id="log-button"><text transform="translate(167 145.19)" style="font-size:101.43638610839844px;fill:#fff;font-family:StolzlDisplay-Bold, Stolzl Display;font-weight:700;letter-spacing:0.029998789061236646em">LOGOUT</text><rect x="159.38" y="41.97" width="475" height="137" style="fill:#fff;opacity:0"/></g></g></svg>